<svg width="128" height="88" viewBox="0 0 128 88" fill="#fff" xmlns="http://www.w3.org/2000/svg">
    <path d="M112.554 48.0894H91.3982V48.8213H112.554V48.0894Z" fill="currentColor"></path>
    <path d="M36.1932 48.0889H15.0371V48.8208H36.1932V48.0889Z" fill="currentColor"></path>
    <path d="M85.9925 45.5955V45.7736H86.1522C86.232 45.7736 86.3118 45.7933 86.3717 45.8527C86.4316 45.912 86.4515 45.9714 86.4515 46.0505V48.7212C86.4515 49.1762 86.3118 49.5323 86.0524 49.8093C85.7929 50.0862 85.4337 50.2247 85.0145 50.2247C84.5954 50.2247 84.2561 50.0862 83.9966 49.7895C83.7372 49.4927 83.6174 49.1169 83.6174 48.6421V46.0703C83.6174 45.9912 83.6573 45.9318 83.6973 45.8725C83.7571 45.8131 83.817 45.7933 83.9168 45.7933H84.0765V45.6153H82.5796V45.7933H82.7393C82.7991 45.7933 82.859 45.8131 82.8989 45.8329C82.9987 45.8923 83.0386 45.9714 83.0386 46.0703V48.7212C83.0386 49.2553 83.2183 49.7103 83.5775 50.0269C83.9368 50.3632 84.3958 50.5214 84.9746 50.5214C85.5534 50.5214 86.0125 50.3434 86.3518 50.0269C86.691 49.6906 86.8707 49.2553 86.8707 48.7212V46.0505C86.8707 45.9714 86.9106 45.912 86.9705 45.8725C87.0303 45.8131 87.0902 45.7933 87.19 45.7933H87.3497V45.6153H85.9925V45.5955ZM74.3966 49.2553C74.2768 49.5323 74.1371 49.7499 73.9775 49.8884C73.8178 50.0269 73.5583 50.106 73.239 50.106H72.3209V48.2069H73.4186C73.4984 48.2069 73.5583 48.2464 73.5982 48.286C73.6581 48.3453 73.6781 48.4047 73.6781 48.4838V48.6421H73.8577V47.4551H73.6781V47.6134C73.6781 47.6925 73.6581 47.7518 73.5982 47.8112C73.5384 47.8705 73.4785 47.8903 73.3987 47.8903H72.3009V45.9318H73.6182C73.698 45.9318 73.7779 45.9714 73.8377 46.0307C73.8976 46.0901 73.9375 46.1692 73.9375 46.2681V46.4462H74.1172V45.457L74.0373 45.4966C73.9774 45.5164 73.8577 45.5559 73.698 45.5757C73.5384 45.5955 73.3787 45.6153 73.239 45.6153H71.1833L71.2032 45.7933H71.3429C71.4427 45.7933 71.5226 45.8329 71.6024 45.8923C71.6822 45.9516 71.7221 46.0307 71.7221 46.1297V49.9082C71.7221 50.0071 71.6822 50.106 71.6024 50.1654C71.5226 50.2445 71.4427 50.2643 71.3429 50.2643H71.2032V50.4423H74.1172L74.5562 49.2356H74.3567L74.3966 49.2553ZM44.3989 46.2681C43.9398 45.8329 43.3411 45.5955 42.6026 45.5955H40.2275L40.2475 45.7736H40.3872C40.487 45.7736 40.5668 45.8131 40.6467 45.8725C40.7265 45.9318 40.7664 46.011 40.7664 46.1099V49.8884C40.7664 49.9873 40.7265 50.0862 40.6467 50.1456C40.5668 50.2247 40.487 50.2445 40.3872 50.2445H40.2475V50.4225H42.6026C43.3411 50.4225 43.9398 50.2049 44.3989 49.7499C44.8579 49.3147 45.0974 48.7212 45.0974 48.009C45.0974 47.2968 44.8579 46.7034 44.3989 46.2681ZM44.2392 49.1169C44.0795 49.4334 43.86 49.6708 43.5806 49.8488C43.3012 50.0269 42.9619 50.106 42.6026 50.106H41.3253V45.912H42.6026C43.1614 45.912 43.6205 46.1099 43.9598 46.4857C44.2991 46.8616 44.4787 47.376 44.4787 48.009C44.4787 48.4245 44.3989 48.8003 44.2392 49.1169ZM57.1524 50.2049C57.0127 50.1456 56.9328 50.0269 56.9129 49.8686L56.374 45.4966H56.2143L54.3981 49.473L52.5619 45.5164L52.542 45.4768H52.3823L51.8634 49.8488C51.8434 49.9675 51.8035 50.0467 51.7237 50.1258C51.6438 50.1851 51.544 50.2247 51.4243 50.2247H51.2646V50.4027H52.7016V50.2247H52.542C52.4821 50.2247 52.4422 50.2049 52.4023 50.1456C52.3623 50.106 52.3424 50.0467 52.3424 49.9873L52.6218 46.9012L54.2983 50.5214H54.458V50.4819C54.4779 50.3038 54.5578 50.0862 54.6775 49.8093L56.0148 46.8616L56.2942 50.0269C56.2942 50.0862 56.2742 50.1258 56.2343 50.1851C56.1944 50.2247 56.1345 50.2643 56.0746 50.2643H55.915V50.4423H57.5116V50.2643H57.352C57.2921 50.2445 57.2123 50.2247 57.1524 50.2049ZM48.4305 45.4966C47.692 45.4966 47.0933 45.734 46.6342 46.189C46.1752 46.644 45.9357 47.2573 45.9357 48.009C45.9357 48.7608 46.1752 49.374 46.6342 49.829C47.0933 50.2841 47.692 50.5214 48.4305 50.5214C49.169 50.5214 49.7677 50.2841 50.2467 49.829C50.7058 49.374 50.9453 48.7608 50.9453 48.009C50.9453 47.2573 50.7058 46.644 50.2467 46.189C49.7677 45.734 49.169 45.4966 48.4305 45.4966ZM49.7877 49.6114C49.4484 50.0071 48.9893 50.2049 48.4305 50.2049C47.8717 50.2049 47.4126 50.0071 47.0733 49.6114C46.734 49.2158 46.5544 48.6816 46.5544 48.009C46.5544 47.3562 46.734 46.822 47.0733 46.4066C47.4126 46.011 47.8717 45.8131 48.4105 45.8131C48.7698 45.8131 49.1091 45.912 49.3885 46.0901C49.6679 46.2681 49.8875 46.5253 50.0471 46.8616C50.2068 47.1979 50.2866 47.5738 50.2866 48.009C50.2866 48.6816 50.127 49.2158 49.7877 49.6114ZM69.0676 45.7736H69.2473C69.3471 45.7736 69.4269 45.8131 69.5067 45.8725C69.5866 45.9318 69.6065 46.0307 69.6265 46.1297V49.3345L66.014 45.5164L65.994 45.4966H65.8344L65.8543 45.6746C65.8942 45.8923 65.8942 46.1296 65.8942 46.4066V49.9082C65.8942 50.0071 65.8543 50.0862 65.7944 50.1654C65.7146 50.2247 65.6348 50.2643 65.535 50.2643H65.3554V50.4423H66.8722V50.2643H66.6926C66.6327 50.2643 66.5728 50.2445 66.513 50.2247C66.3932 50.1654 66.3333 50.0664 66.3333 49.928V46.7231L69.9458 50.5412L69.9658 50.561H70.1254L70.1055 50.383C70.0656 50.1456 70.0656 49.9082 70.0656 49.651V46.1692C70.0656 46.0703 70.1055 45.9912 70.1853 45.912C70.2652 45.8527 70.345 45.8131 70.4448 45.8131H70.6244V45.6351H69.0676V45.7736ZM63.0402 45.7736H63.1799C63.2797 45.7736 63.3595 45.8131 63.4393 45.8725C63.5192 45.9516 63.5591 46.0307 63.5591 46.1297V49.8686C63.5591 49.9675 63.5192 50.0664 63.4393 50.1258C63.3595 50.2049 63.2797 50.2247 63.1799 50.2247H63.0402V50.4027H64.6368V50.2247H64.4971C64.3973 50.2247 64.2976 50.1851 64.2377 50.1258C64.1578 50.0467 64.1179 49.9675 64.1179 49.8686V46.1297C64.1179 46.0307 64.1578 45.9516 64.2377 45.8725C64.3175 45.7933 64.3973 45.7736 64.4971 45.7736H64.6368V45.5955H63.0402V45.7736ZM79.506 45.5955H77.1309L77.1509 45.7736H77.2906C77.3904 45.7736 77.4702 45.8131 77.55 45.8725C77.6299 45.9318 77.6698 46.011 77.6698 46.1099V49.8884C77.6698 49.9873 77.6299 50.0862 77.55 50.1456C77.4702 50.2247 77.3904 50.2445 77.2906 50.2445H77.1509V50.4225H79.506C80.2444 50.4225 80.8432 50.2049 81.3022 49.7499C81.7613 49.3147 82.0008 48.7212 82.0008 48.009C82.0008 47.2968 81.7613 46.7034 81.3022 46.2681C80.8432 45.8329 80.2444 45.5955 79.506 45.5955ZM81.1426 49.1169C80.9829 49.4334 80.7634 49.6708 80.4839 49.8488C80.2045 50.0269 79.8652 50.106 79.506 50.106H78.2286V45.912H79.506C80.0648 45.912 80.5239 46.1099 80.8632 46.4857C81.2024 46.8616 81.3821 47.376 81.3821 48.009C81.3821 48.4245 81.3022 48.8003 81.1426 49.1169ZM62.2618 50.1456C62.162 50.0862 62.0822 49.9873 62.0223 49.8488L60.1861 45.4966H60.0264V45.5559C60.0264 45.6153 59.9865 45.7933 59.7869 46.2286L58.2501 49.8488C58.1902 49.9873 58.1104 50.0862 58.0106 50.1456C57.9108 50.2049 57.811 50.2445 57.7112 50.2445H57.5915V50.4225H59.0684V50.2445H58.9487C58.8688 50.2445 58.809 50.2247 58.789 50.1851C58.7491 50.1258 58.7291 50.0862 58.7291 50.0467C58.7291 50.0071 58.7291 49.9477 58.7491 49.9082L59.1882 48.8003H60.9445L61.3636 49.9082C61.3836 49.9477 61.3836 50.0071 61.3836 50.0467C61.3836 50.0862 61.3636 50.1258 61.3237 50.1851C61.2838 50.2247 61.2239 50.2445 61.1641 50.2445H61.0443V50.4225H62.6809V50.2445H62.5612C62.4614 50.2445 62.3616 50.2247 62.2618 50.1456ZM59.3079 48.4838L60.0863 46.5451L60.8248 48.4838H59.3079Z" fill="currentColor"></path>
    <path d="M58.9639 41.2831C58.3652 39.9972 57.7066 38.7509 56.8883 37.5639C56.0899 36.4363 55.1718 35.3482 54.0541 34.458C54.0142 34.5569 53.9743 34.6558 53.9144 34.7548L53.8546 34.8537C53.7548 35.0119 53.6151 35.1306 53.4753 35.2493C54.5132 36.0209 55.4313 36.9902 56.2496 38.0387C57.0878 39.1268 57.7864 40.3137 58.4251 41.5403C58.445 41.5798 58.465 41.5996 58.465 41.6392H59.1236C59.0837 41.5205 59.0238 41.4018 58.9639 41.2831Z" fill="currentColor"></path>
    <path d="M64.4559 19.0693C64.2563 19.1287 64.0568 19.1683 63.8372 19.1683H63.6776C63.4979 19.1683 63.3183 19.1287 63.1387 19.0891L63.4181 41.6416H64.1765L64.4559 19.0693Z" fill="currentColor"></path>
    <path d="M66.7479 41.6395C67.3267 38.6325 68.165 35.6849 69.2627 32.8559C69.8016 31.4316 70.4602 30.0468 71.1787 28.7015C71.5579 28.0487 71.9372 27.3959 72.3762 26.7826C72.7754 26.2287 73.2145 25.655 73.6536 25.2C73.5338 25.1406 73.3941 25.0615 73.2943 24.9626L73.2145 24.8834C73.0947 24.7845 73.0149 24.646 72.9351 24.5273C72.3962 25.101 71.997 25.6748 71.5779 26.2682C71.1388 26.9211 70.7596 27.6135 70.3804 28.3059C69.6619 29.7105 69.0432 31.1348 68.5242 32.5988C67.4664 35.5266 66.6881 38.5336 66.1691 41.5802C66.1691 41.6 66.1691 41.6197 66.1492 41.6593H66.7479V41.6395Z" fill="currentColor"></path>
    <path d="M73.7521 24.4883C73.9318 24.6466 74.1713 24.7257 74.4108 24.7257C74.6104 24.7257 74.8099 24.6466 74.9696 24.5081L79.6998 20.512C79.8794 20.3735 79.9592 20.1757 79.9792 19.958C79.9792 19.7404 79.8994 19.5624 79.7397 19.4041L79.6 19.2854C79.2806 18.9887 78.7418 18.9689 78.3825 19.2656L73.6923 23.3014C73.5326 23.4398 73.4328 23.6377 73.4128 23.8553C73.4128 24.0729 73.4927 24.2707 73.6523 24.4092L73.7521 24.4883Z" fill="currentColor"></path>
    <path d="M73.7288 34.8537L73.6689 34.7548C73.609 34.6558 73.5691 34.5569 73.5292 34.458C72.4315 35.368 71.4934 36.4363 70.6951 37.5639C69.8768 38.7509 69.2181 39.9972 68.6194 41.2831C68.5595 41.4018 68.5196 41.5205 68.4597 41.6392H69.1183C69.1383 41.5996 69.1583 41.5798 69.1583 41.5403C69.7969 40.3137 70.5154 39.1268 71.3337 38.0387C72.152 36.9902 73.0701 36.0406 74.108 35.2493C73.9483 35.1504 73.8286 35.0119 73.7288 34.8537Z" fill="currentColor"></path>
    <path d="M80.9594 18.5143L80.66 18.2373L79.6421 19.1275L79.9215 19.4045L80.9594 18.5143Z" fill="currentColor"></path>
    <path d="M64.0161 7H63.5171V8.64198H64.0161V7Z" fill="currentColor"></path>
    <path d="M47.9471 19.1275L46.9293 18.2373L46.6299 18.5143L47.6677 19.4045L47.9471 19.1275Z" fill="currentColor"></path>
    <path d="M80.7612 30.5631C80.5217 30.1873 80.0427 30.0686 79.6435 30.2862L74.4942 33.3327C74.3146 33.4317 74.1748 33.6097 74.1349 33.8273C74.0751 34.0251 74.115 34.2428 74.2347 34.4208L74.2946 34.5197C74.4543 34.7769 74.7137 34.8956 74.9932 34.8956C75.1329 34.8956 75.2726 34.856 75.3923 34.7769L80.5616 31.7699C80.7412 31.671 80.8809 31.4929 80.9208 31.2951C80.9807 31.0973 80.9408 30.8797 80.821 30.7016L80.7612 30.5631Z" fill="currentColor"></path>
    <path d="M63.6748 18.5132H63.8544C64.4731 18.5132 64.9721 18.0582 64.9721 17.5043L65.032 9.80873C65.032 9.55155 64.9322 9.31416 64.7526 9.13611C64.553 8.9185 64.2336 8.7998 63.9343 8.7998H63.6748C63.0561 8.7998 62.5571 9.25481 62.5571 9.80873V17.5043C62.5571 18.0582 63.0561 18.5132 63.6748 18.5132Z" fill="currentColor"></path>
    <path d="M81.9387 29.7305L80.821 30.4031L81.0206 30.7196L82.1583 30.0668L81.9387 29.7305Z" fill="currentColor"></path>
    <path d="M52.5999 34.8956C52.8793 34.8956 53.1587 34.7571 53.2984 34.5197L53.3583 34.4208C53.4781 34.2428 53.498 34.0251 53.4581 33.8273C53.3982 33.6295 53.2785 33.4514 53.0988 33.3327L47.9495 30.2862C47.5703 30.0686 47.0714 30.1873 46.8518 30.5631L46.752 30.7214C46.6323 30.8995 46.6123 31.1171 46.6522 31.3149C46.7121 31.5127 46.8319 31.6908 47.0115 31.7897L52.1807 34.7967C52.3205 34.856 52.4602 34.8956 52.5999 34.8956Z" fill="currentColor"></path>
    <path d="M45.6525 29.7305L45.4529 30.0668L46.5706 30.7196L46.7901 30.4031L45.6525 29.7305Z" fill="currentColor"></path>
    <path d="M55.2121 26.7838C55.6512 27.3971 56.0304 28.0499 56.4096 28.7028C57.1281 30.048 57.7868 31.413 58.3256 32.8572C59.4234 35.6861 60.2616 38.6338 60.8404 41.6408H61.4192C61.4192 41.621 61.4192 41.6012 61.3993 41.5616C60.8803 38.5151 60.1019 35.5081 59.0441 32.5802C58.5252 31.1163 57.8865 29.6919 57.188 28.2873C56.8088 27.5949 56.4296 26.9223 55.9905 26.2497C55.5714 25.6364 55.1722 25.0627 54.6333 24.5088C54.5535 24.6473 54.4736 24.766 54.3539 24.8649L54.274 24.944C54.1743 25.0429 54.0545 25.1221 53.9148 25.1814C54.3938 25.6562 54.8329 26.2299 55.2121 26.7838Z" fill="currentColor"></path>
    <path d="M47.6125 19.958C47.6125 20.1757 47.7123 20.3735 47.892 20.512L52.6221 24.5081C52.7818 24.6466 52.9814 24.7059 53.181 24.7257C53.4205 24.7257 53.66 24.6466 53.8396 24.4883L53.9195 24.4092C54.0791 24.2707 54.159 24.0729 54.159 23.8553C54.159 23.6377 54.0592 23.4398 53.8795 23.3014L49.1893 19.2656C48.85 18.9689 48.3111 18.9887 47.9718 19.2854L47.8321 19.4041C47.6924 19.5624 47.6125 19.7602 47.6125 19.958Z" fill="currentColor"></path>
    <path d="M15.3577 72.7973C15.3577 71.8873 16.0562 71.1157 17.0342 71.1157C17.593 71.1157 17.9523 71.274 18.2916 71.5509L17.9323 71.9862C17.6729 71.7686 17.4334 71.6499 17.0142 71.6499C16.4155 71.6499 15.9564 72.1642 15.9564 72.7973C15.9564 73.4699 16.3955 73.9447 17.0541 73.9447C17.3535 73.9447 17.6329 73.8458 17.8325 73.7073V73.094H16.9943V72.5994H18.3714V73.9645C18.0521 74.2414 17.593 74.459 17.0142 74.459C16.0163 74.459 15.3577 73.7468 15.3577 72.7973Z" fill="currentColor"></path>
    <path d="M20.0261 72.7973C20.0261 71.8873 20.7247 71.1157 21.7426 71.1157C22.7405 71.1157 23.439 71.8675 23.439 72.7775C23.439 73.6875 22.7405 74.4392 21.7226 74.4392C20.7047 74.4392 20.0261 73.7073 20.0261 72.7973ZM22.8203 72.7973C22.8203 72.1642 22.3613 71.6301 21.7226 71.6301C21.0839 71.6301 20.6249 72.1444 20.6249 72.7775C20.6249 73.4105 21.0839 73.9249 21.7226 73.9249C22.3812 73.9447 22.8203 73.4303 22.8203 72.7973Z" fill="currentColor"></path>
    <path d="M25.1372 71.1719H25.716V73.8821H27.4324V74.3965H25.1572V71.1719H25.1372Z" fill="currentColor"></path>
    <path d="M29.0512 71.1719H31.4662V71.6862H29.61V72.5765H31.2466V73.0908H29.61V74.3965H29.0312V71.1719H29.0512Z" fill="currentColor"></path>
    <path d="M35.6008 72.773C35.6008 72.3971 35.9002 72.1201 36.2595 72.1201C36.6187 72.1201 36.9181 72.3971 36.9181 72.773C36.9181 73.129 36.6187 73.4258 36.2595 73.4258C35.9002 73.4258 35.6008 73.1488 35.6008 72.773Z" fill="currentColor"></path>
    <path d="M41.2673 71.1719H41.8461V72.5171H43.4029V71.1719H43.9817V74.3965H43.4029V73.0315H41.8461V74.3965H41.2673V71.1719Z" fill="currentColor"></path>
    <path d="M45.6736 72.7952C45.6736 71.8851 46.3721 71.1136 47.39 71.1136C48.3879 71.1136 49.0865 71.8654 49.0865 72.7754C49.0865 73.6854 48.3879 74.4371 47.3701 74.4371C46.3721 74.4569 45.6736 73.7052 45.6736 72.7952ZM48.4877 72.7952C48.4877 72.1621 48.0287 71.628 47.39 71.628C46.7513 71.628 46.2923 72.1423 46.2923 72.7754C46.2923 73.4084 46.7513 73.9228 47.39 73.9228C48.0287 73.9426 48.4877 73.4282 48.4877 72.7952ZM47.1106 70.2432H47.6495L48.2083 70.8564H47.7293L47.3701 70.5795L47.0108 70.8564H46.5518L47.1106 70.2432Z" fill="currentColor"></path>
    <path d="M51.418 71.706H50.3801V71.1719H53.0147V71.706H51.9768V74.4163H51.398V71.706H51.418Z" fill="currentColor"></path>
    <path d="M54.6545 71.1719H57.0695V71.6862H55.2333V72.5171H56.8699V73.0315H55.2333V73.9019H57.0895V74.4163H54.6545V71.1719Z" fill="currentColor"></path>
    <path d="M58.804 71.1719H59.3828V73.8821H61.0992V74.3965H58.8239V71.1719H58.804Z" fill="currentColor"></path>
    <path d="M65.1946 72.773C65.1946 72.3971 65.494 72.1201 65.8532 72.1201C66.2125 72.1201 66.5119 72.3971 66.5119 72.773C66.5119 73.129 66.2125 73.4258 65.8532 73.4258C65.494 73.4258 65.1946 73.1488 65.1946 72.773Z" fill="currentColor"></path>
    <path d="M70.842 71.1719H72.299C72.7181 71.1719 73.0375 71.2906 73.2371 71.4884C73.4167 71.6664 73.5165 71.9038 73.5165 72.1808C73.5165 72.7149 73.1971 73.0315 72.7381 73.1502L73.6163 74.3767H72.9377L72.1393 73.2491H71.4208V74.3767H70.842V71.1719ZM72.2591 72.7743C72.6782 72.7743 72.9377 72.5567 72.9377 72.2401C72.9377 71.9038 72.6782 71.706 72.2591 71.706H71.4208V72.7941H72.2591V72.7743Z" fill="currentColor"></path>
    <path d="M75.2344 71.1719H77.6494V71.6862H75.8132V72.5171H77.4498V73.0315H75.8132V73.9019H77.6693V74.4163H75.2344V71.1719Z" fill="currentColor"></path>
    <path d="M79.1667 73.9249L79.506 73.5095C79.8254 73.7864 80.1248 73.9249 80.5439 73.9249C80.9031 73.9249 81.1227 73.7666 81.1227 73.5095C81.1227 73.2721 80.983 73.1534 80.3842 73.0149C79.6857 72.8566 79.3065 72.639 79.3065 72.0455C79.3065 71.4916 79.7655 71.1157 80.4241 71.1157C80.9031 71.1157 81.2824 71.2542 81.6017 71.5312L81.3023 71.9664C81.0029 71.7488 80.7235 71.6301 80.4241 71.6301C80.0848 71.6301 79.8853 71.8081 79.8853 72.006C79.8853 72.2631 80.025 72.362 80.6636 72.5203C81.3422 72.6786 81.7015 72.9357 81.7015 73.4699C81.7015 74.0832 81.2225 74.4392 80.5439 74.4392C80.025 74.459 79.546 74.281 79.1667 73.9249Z" fill="currentColor"></path>
    <path d="M84.116 71.706H83.0781V71.1719H85.7126V71.706H84.6748V74.4163H84.096V71.706H84.116Z" fill="currentColor"></path>
    <path d="M88.0855 71.1523H88.6244L90.0614 74.3967H89.4626L89.1234 73.6252H87.5865L87.2473 74.3967H86.6685L88.0855 71.1523ZM88.9038 73.1109L88.345 71.825L87.7861 73.1109H88.9038Z" fill="currentColor"></path>
    <path d="M91.4619 73.0315V71.1719H92.0407V73.0117C92.0407 73.6052 92.36 73.9415 92.859 73.9415C93.358 73.9415 93.6773 73.6447 93.6773 73.0512V71.1917H94.2561V73.0315C94.2561 74.0008 93.6973 74.4756 92.859 74.4756C92.0008 74.4558 91.4619 73.9613 91.4619 73.0315Z" fill="currentColor"></path>
    <path d="M96.0469 71.1719H97.5039C97.923 71.1719 98.2423 71.2906 98.4419 71.4884C98.6215 71.6664 98.7213 71.9038 98.7213 72.1808C98.7213 72.7149 98.402 73.0315 97.9429 73.1502L98.8211 74.3767H98.1425L97.3442 73.2491H96.6257V74.3767H96.0469V71.1719ZM97.4639 72.7743C97.8831 72.7743 98.1425 72.5567 98.1425 72.2401C98.1425 71.9038 97.8831 71.706 97.4639 71.706H96.6257V72.7941H97.4639V72.7743Z" fill="currentColor"></path>
    <path d="M101.598 71.1523H102.137L103.574 74.3967H102.975L102.636 73.6252H101.099L100.759 74.3967H100.181L101.598 71.1523ZM102.416 73.1109L101.857 71.825L101.298 73.1109H102.416Z" fill="currentColor"></path>
    <path d="M105.13 71.1719H105.669L107.405 73.4073V71.1719H107.964V74.3965H107.485L105.689 72.1017V74.3965H105.13V71.1719Z" fill="currentColor"></path>
    <path d="M110.64 71.706H109.603V71.1719H112.237V71.706H111.199V74.4163H110.62V71.706H110.64Z" fill="currentColor"></path>
    <path d="M23.6791 54.5974C21.8429 54.5974 20.3461 55.1712 19.2084 56.3186C18.0708 57.466 17.492 58.9695 17.492 60.8291C17.492 62.6887 18.0708 64.1921 19.2084 65.3396C20.3461 66.487 21.8629 67.0607 23.6791 67.0607C25.5153 67.0607 27.0122 66.487 28.1698 65.3396C29.3074 64.1921 29.9062 62.6887 29.9062 60.8291C29.9062 58.9695 29.3274 57.466 28.1698 56.3186C27.0122 55.1712 25.4954 54.5974 23.6791 54.5974ZM27.132 64.8846C26.2738 65.9133 25.0962 66.4276 23.6791 66.4276C22.2421 66.4276 21.0845 65.9133 20.2263 64.8846C19.3481 63.8558 18.909 62.4908 18.909 60.8291C18.909 59.1475 19.3481 57.7825 20.2263 56.7736C21.0845 55.7449 22.2621 55.2305 23.6791 55.2305C24.6172 55.2305 25.4554 55.4679 26.1939 55.9229C26.9124 56.3779 27.4713 57.0505 27.8704 57.8814C28.2696 58.7321 28.4692 59.7212 28.4692 60.8291C28.4492 62.4908 28.0101 63.8558 27.132 64.8846ZM39.4065 55.1118H39.7458C39.9853 55.1118 40.1849 55.1909 40.3445 55.3294C40.5042 55.4679 40.584 55.6459 40.604 55.8636V62.5502C40.604 63.6976 40.2647 64.6274 39.5861 65.3396C38.9075 66.032 38.0094 66.4078 36.9117 66.4078C35.8139 66.4078 34.9358 66.032 34.2771 65.3C33.6185 64.5482 33.2992 63.5591 33.2992 62.3523V55.8833C33.3191 55.6657 33.399 55.4877 33.5586 55.3294C33.7183 55.1909 33.9179 55.1118 34.1574 55.1118H34.4967V54.8348H30.9041V55.1118H31.2434C31.4031 55.1118 31.5428 55.1514 31.6825 55.2107C31.9619 55.369 32.1016 55.5866 32.1016 55.9031V62.5897C32.1016 63.9152 32.5407 65.0032 33.4189 65.8341C34.2971 66.6452 35.4547 67.0607 36.8717 67.0607C38.2888 67.0607 39.4264 66.6452 40.2847 65.8143C41.1429 64.9835 41.562 63.8954 41.562 62.57V55.8636C41.582 55.6459 41.6618 55.4877 41.8215 55.3294C41.9811 55.1909 42.1807 55.1118 42.4003 55.1118H42.7396V54.8348H39.4664V55.1118H39.4065ZM52.4793 55.1118H52.6989C52.9184 55.1118 53.0781 55.1712 53.1978 55.3096C53.3176 55.4481 53.3575 55.5866 53.3575 55.7053C53.3575 55.824 53.3376 55.9625 53.2976 56.0812L49.6253 64.8252L46.1126 56.0812C46.0527 55.9625 46.0327 55.8438 46.0327 55.7646C46.0327 55.6855 46.0527 55.6064 46.0726 55.547C46.1724 55.2503 46.392 55.1118 46.7113 55.1118H46.9309V54.8348H42.9591V55.1118H43.1587C43.4381 55.1118 43.6976 55.1909 43.977 55.369C44.2365 55.5272 44.456 55.8042 44.6157 56.1405L49.4257 67.0013L49.4456 67.0409H49.7051V66.9815C49.7051 66.7441 49.9246 66.1704 50.3238 65.2604L54.4353 56.1207C54.5351 55.8833 54.6748 55.7053 54.8544 55.547C55.1538 55.2503 55.513 55.1118 55.8723 55.1118H56.0918V54.8348H52.5392V55.1118H52.4793ZM12.8616 61.3038H13.1809C13.4404 61.3038 13.64 61.3632 13.7797 61.4819C13.9194 61.6006 13.9992 61.7786 13.9992 61.9962V64.9637C13.5003 65.4187 12.9414 65.7748 12.2828 66.0122C11.6242 66.2693 10.9256 66.4078 10.1872 66.4078C8.7701 66.388 7.59254 65.8737 6.71436 64.8648C5.83619 63.8558 5.3971 62.4908 5.3971 60.8093C5.3971 59.1277 5.83619 57.7627 6.73432 56.7538C7.6125 55.7251 8.79005 55.2107 10.2071 55.2107C11.3248 55.2107 12.2628 55.4679 13.0013 55.9823C13.7398 56.4966 14.2387 57.2484 14.4982 58.1979L14.5182 58.2375H14.7776L14.4184 55.7646L14.3984 55.7449C13.2009 54.9733 11.7838 54.5777 10.2071 54.5777C8.37092 54.5777 6.87403 55.1514 5.73639 56.2988C4.5788 57.4462 4 58.9695 4 60.8093C4 62.6491 4.5788 64.1724 5.71644 65.3C6.85407 66.4276 8.37092 67.0211 10.1872 67.0211C11.0055 67.0211 11.7639 66.9024 12.4624 66.665C13.161 66.4276 13.7198 66.1507 14.119 65.8539C14.5381 65.5572 14.8974 65.2011 15.1968 64.8054L15.2167 64.7856V61.9765C15.1968 61.7391 15.2766 61.5808 15.3963 61.4621C15.536 61.3434 15.7356 61.2841 16.0151 61.2841H16.3344V61.0071H12.8616V61.3038ZM108.264 55.1118H108.603C108.842 55.1118 109.042 55.1909 109.202 55.3294C109.361 55.4679 109.441 55.6459 109.461 55.8636V62.5502C109.461 63.6976 109.122 64.6274 108.443 65.3396C107.765 66.032 106.866 66.4078 105.769 66.4078C104.671 66.4078 103.793 66.032 103.134 65.3C102.476 64.5482 102.156 63.5591 102.156 62.3523V55.8636C102.176 55.6459 102.256 55.4679 102.416 55.3096C102.575 55.1712 102.775 55.092 103.014 55.092H103.354V54.8151H99.7612V55.092H100.1C100.26 55.092 100.4 55.1316 100.54 55.1909C100.819 55.3492 100.959 55.5668 100.959 55.8833V62.5897C100.959 63.9152 101.398 65.0032 102.276 65.8341C103.154 66.6452 104.312 67.0607 105.729 67.0607C107.146 67.0607 108.283 66.6452 109.142 65.8143C110 64.9835 110.419 63.8954 110.419 62.57V55.8636C110.439 55.6459 110.519 55.4877 110.678 55.3294C110.838 55.1909 111.038 55.1118 111.257 55.1118H111.597V54.8348H108.323V55.1118H108.264ZM64.3347 63.9745C64.0353 64.7065 63.6761 65.2406 63.237 65.6165C62.7979 65.9726 62.1592 66.1704 61.3409 66.1704H58.9459V61.2247H61.8C62.0195 61.2445 62.1792 61.3038 62.3389 61.4621C62.4786 61.6204 62.5584 61.7786 62.5584 61.9962V62.3128H62.8378V59.5234H62.5584V59.8201C62.5584 60.0377 62.4786 60.2158 62.3389 60.374C62.1792 60.5323 62.0195 60.5917 61.8 60.6114H58.9659V55.4679H62.3987C62.6382 55.4877 62.8578 55.5668 63.0374 55.7646C63.217 55.9427 63.2969 56.1603 63.2969 56.4175V56.7736H63.5763V54.4985L63.4965 54.5381C63.3368 54.5974 63.0374 54.6766 62.6183 54.7359C62.1992 54.7953 61.8199 54.8348 61.4806 54.8348H56.4112L56.4311 55.1118H56.6906C56.9501 55.1118 57.1896 55.1909 57.3891 55.369C57.5887 55.547 57.6885 55.7646 57.7284 56.0218V65.5176C57.7085 65.7946 57.6087 66.032 57.4091 66.2298C57.2095 66.4276 56.97 66.5265 56.6906 66.5265H56.4112V66.8035H63.5963L64.6341 63.935H64.3347V63.9745ZM123.532 66.5265C123.173 66.5265 122.813 66.4474 122.494 66.2891C122.354 66.2298 122.215 66.1309 122.055 66.032C121.915 65.9133 121.775 65.8143 121.656 65.6957C121.536 65.577 121.316 65.3593 121.017 65.0428C120.718 64.7263 120.079 63.8558 119.101 62.471C118.921 62.2139 118.702 61.9765 118.462 61.7391C118.303 61.5808 118.143 61.4621 118.023 61.3632C118.762 61.3038 119.4 60.9675 119.919 60.3543C120.498 59.6817 120.778 58.8903 120.778 57.9605C120.778 57.0307 120.478 56.279 119.879 55.7053C119.281 55.1316 118.442 54.8348 117.385 54.8348H112.714V55.1118H112.994C113.273 55.1118 113.513 55.2107 113.712 55.4085C113.912 55.6064 114.012 55.8438 114.032 56.1207V65.5176C114.012 65.7946 113.912 66.032 113.712 66.2298C113.513 66.4276 113.273 66.5265 112.994 66.5265H112.714V66.8035H116.586L116.566 66.5265H116.307C116.007 66.5265 115.768 66.4276 115.568 66.2298C115.369 66.032 115.269 65.7946 115.269 65.5176V55.4679H116.307C116.706 55.4679 117.045 55.4679 117.325 55.4877C117.943 55.5272 118.442 55.7646 118.802 56.2196C119.161 56.6747 119.36 57.2681 119.38 58.0199V58.3958C119.38 58.5936 119.34 58.7914 119.281 59.009C118.921 60.1169 118.043 60.6906 116.666 60.7301C116.247 60.7499 115.948 60.7499 115.768 60.7301H115.708V61.0269H115.768C116.107 61.0269 116.466 61.2049 116.826 61.5808C116.945 61.7193 117.065 61.8578 117.185 61.9962C117.305 62.1347 117.704 62.7084 118.402 63.6976C119.101 64.6867 119.52 65.2802 119.68 65.4583C119.839 65.6363 120.019 65.8143 120.239 66.0122C120.458 66.21 120.778 66.3881 121.197 66.5661C121.616 66.7441 122.095 66.8233 122.594 66.8233H123.592V66.5463H123.532V66.5265ZM98.2842 63.9745C97.9848 64.7065 97.6256 65.2406 97.1865 65.6165C96.7474 65.9726 96.1087 66.1704 95.2904 66.1704H92.8954V61.2247H95.7495C95.969 61.2445 96.1487 61.3236 96.2884 61.4621C96.4281 61.6204 96.5079 61.7786 96.5079 61.9962V62.3128H96.7873V59.5234H96.5079V59.8201C96.5079 60.0377 96.4281 60.2158 96.2884 60.374C96.1287 60.5323 95.969 60.5917 95.7495 60.6114H92.9154V55.4679H96.3482C96.5877 55.4877 96.8073 55.5668 96.9869 55.7646C97.1665 55.9427 97.2464 56.1603 97.2464 56.4175V56.7736H97.5258V54.4985L97.446 54.5381C97.2863 54.5974 96.9869 54.6766 96.5678 54.7359C96.1487 54.7953 95.7694 54.8348 95.4302 54.8348H90.3607L90.3806 55.1118H90.6401C90.8996 55.1118 91.1391 55.1909 91.3386 55.369C91.5382 55.547 91.638 55.7646 91.6779 56.0218V65.5176C91.658 65.7946 91.5582 66.032 91.3586 66.2298C91.159 66.4276 90.9195 66.5265 90.6401 66.5265H90.3607V66.8035H97.5458L98.5836 63.935H98.2842V63.9745ZM85.5507 55.1118H85.9299C86.1893 55.1118 86.4288 55.2107 86.6284 55.3888C86.828 55.5668 86.9278 55.8042 86.9278 56.0812V64.3504L77.7069 54.5974L77.687 54.5777H77.4475L77.4874 54.914C77.5672 55.4481 77.6072 56.0614 77.6072 56.7538V65.5572C77.6072 65.8341 77.5074 66.0715 77.3078 66.2496C77.1082 66.4276 76.8886 66.5265 76.6092 66.5265H76.5494C76.1901 66.5265 75.8308 66.4474 75.5115 66.2891C75.3718 66.2298 75.2321 66.1309 75.0724 66.032C74.9327 65.9133 74.793 65.8143 74.6733 65.6957C74.5535 65.577 74.334 65.3593 74.0346 65.0428C73.7352 64.7263 73.0965 63.8558 72.1186 62.471C71.9389 62.2139 71.7194 61.9765 71.4799 61.7391C71.3202 61.5808 71.1605 61.4621 71.0408 61.3632C71.7793 61.3038 72.4179 60.9675 72.9369 60.3543C73.5157 59.6817 73.7951 58.8903 73.7951 57.9605C73.7951 57.0307 73.4957 56.279 72.8969 55.7053C72.2982 55.1316 71.4599 54.8348 70.4021 54.8348H65.7318V55.1118H66.0112C66.2907 55.1118 66.5302 55.2107 66.7297 55.4085C66.9293 55.6064 67.0291 55.8438 67.0491 56.1207V65.5176C67.0291 65.7946 66.9293 66.032 66.7297 66.2298C66.5302 66.4276 66.2907 66.5265 66.0112 66.5265H65.7318V66.8035H69.6038L69.5838 66.5265H69.3244C69.025 66.5265 68.7855 66.4276 68.5859 66.2298C68.3863 66.032 68.2865 65.7946 68.2865 65.5176V55.4679H69.3244C69.7235 55.4679 70.0628 55.4679 70.3422 55.4877C70.961 55.5272 71.4599 55.7646 71.8192 56.2196C72.1784 56.6747 72.378 57.2681 72.398 58.0199V58.3958C72.398 58.5936 72.3581 58.7914 72.2982 59.009C71.9389 60.1169 71.0608 60.6906 69.6836 60.7301C69.2645 60.7499 68.9651 60.7499 68.7855 60.7301H68.7256V61.0269H68.7855C69.1248 61.0269 69.484 61.2049 69.8433 61.5808C69.963 61.7193 70.0828 61.8578 70.2025 61.9962C70.3223 62.1347 70.7215 62.7084 71.42 63.6976C72.1186 64.6867 72.5377 65.2802 72.6974 65.4583C72.857 65.6363 73.0367 65.8143 73.2562 66.0122C73.4757 66.21 73.7951 66.3881 74.2142 66.5661C74.6333 66.7441 75.1123 66.8233 75.6113 66.8233H79.8625V66.5463H79.4833C79.3036 66.5463 79.144 66.5067 79.0043 66.4276C78.6849 66.2496 78.5053 65.9726 78.5053 65.5967V57.3077L87.7262 67.0607L87.7461 67.0805H87.9856L87.9457 66.7046C87.8659 66.1309 87.8259 65.4978 87.8259 64.845V56.1009C87.8459 55.8438 87.9457 55.6064 88.1253 55.4283C88.3249 55.2503 88.5444 55.1514 88.8239 55.1514H89.1831V54.8744H85.5507V55.1118Z" fill="currentColor"></path>
  </svg>